<svg width="24" height="24" viewBox="0 0 24 24" fill="none" xmlns="http://www.w3.org/2000/svg">
<path d="M11.1056 5.4472L10.7702 4.77638V4.77638L11.1056 5.4472ZM2 9.99999L1.66459 9.32917C1.4105 9.45621 1.25 9.71591 1.25 9.99999C1.25 10.2841 1.4105 10.5438 1.66459 10.6708L2 9.99999ZM12.8944 14.5528L13.2298 15.2236L12.8944 14.5528ZM22 9.99999L22.3354 10.6708C22.5895 10.5438 22.75 10.2841 22.75 9.99999C22.75 9.71591 22.5895 9.45621 22.3354 9.32917L22 9.99999ZM12.8944 5.4472L13.2298 4.77638V4.77638L12.8944 5.4472ZM11.1056 14.5528L10.7702 15.2236L11.1056 14.5528ZM17.25 12V16H18.75V12H17.25ZM15 18.25H9V19.75H15V18.25ZM6.75 16V12H5.25V16H6.75ZM9 18.25C7.75736 18.25 6.75 17.2426 6.75 16H5.25C5.25 18.0711 6.92893 19.75 9 19.75V18.25ZM17.25 16C17.25 17.2426 16.2426 18.25 15 18.25V19.75C17.0711 19.75 18.75 18.0711 18.75 16H17.25ZM10.7702 4.77638L1.66459 9.32917L2.33541 10.6708L11.441 6.11802L10.7702 4.77638ZM13.2298 15.2236L22.3354 10.6708L21.6646 9.32917L12.559 13.882L13.2298 15.2236ZM12.559 6.11802L21.6646 10.6708L22.3354 9.32917L13.2298 4.77638L12.559 6.11802ZM11.441 13.882L2.33541 9.32917L1.66459 10.6708L10.7702 15.2236L11.441 13.882ZM12.559 13.882C12.2071 14.0579 11.7929 14.0579 11.441 13.882L10.7702 15.2236C11.5444 15.6107 12.4556 15.6107 13.2298 15.2236L12.559 13.882ZM11.441 6.11802C11.7929 5.94206 12.2071 5.94206 12.559 6.11802L13.2298 4.77638C12.4556 4.38928 11.5444 4.38928 10.7702 4.77638L11.441 6.11802Z" fill="white"/>
<path d="M22 10V16" stroke="white" stroke-width="1.5" stroke-linecap="round" stroke-linejoin="round"/>
</svg>
