<svg width="22" height="17" viewBox="0 0 22 17" fill="none" xmlns="http://www.w3.org/2000/svg">
<path fill-rule="evenodd" clip-rule="evenodd" d="M19.2379 7.5144V8.5011C19.2379 9.72737 18.2438 10.7215 17.0176 10.7215C15.7913 10.7215 14.7972 9.72737 14.7972 8.5011V7.5144L16.3412 8.20064C16.7718 8.392 17.2633 8.392 17.6939 8.20064L19.2379 7.5144ZM13.4095 6.89764V9.33383C13.4095 9.56376 13.2231 9.75015 12.9932 9.75015C12.7633 9.75015 12.5769 9.56376 12.5769 9.33383V6.52704C12.5819 6.52965 12.5871 6.53213 12.5924 6.5345L13.4095 6.89764Z" fill="white"/>
<path d="M21.4427 6.43711L17.6939 4.77097C17.2633 4.5796 16.7718 4.5796 16.3413 4.77097L12.5924 6.43711C12.3727 6.53478 12.3727 6.84668 12.5924 6.94435L16.3413 8.61049C16.7718 8.80186 17.2633 8.80186 17.6939 8.61049L21.4427 6.94435C21.6625 6.84668 21.6625 6.53478 21.4427 6.43711Z" fill="white"/>
<path fill-rule="evenodd" clip-rule="evenodd" d="M15.3168 15.572H20.3481C20.9612 15.572 21.4583 15.075 21.4583 14.4619C21.4583 13.2589 20.372 12.2243 18.8149 11.7664C18.6291 11.7118 18.4302 11.7705 18.294 11.9082L17.4122 12.7999C17.195 13.0195 16.8401 13.0195 16.6229 12.7999L15.7411 11.9082C15.6049 11.7705 15.406 11.7118 15.2202 11.7664C14.6747 11.9268 14.187 12.158 13.7835 12.4424C14.7447 13.322 15.3128 14.4031 15.3168 15.572Z" fill="white"/>
<path fill-rule="evenodd" clip-rule="evenodd" d="M10.7818 5.20706V6.71249C10.7818 8.5832 9.26529 10.0997 7.39458 10.0997C5.52387 10.0997 4.00736 8.5832 4.00736 6.71249V5.20706L6.36282 6.25393C7.01968 6.54587 7.76947 6.54587 8.42634 6.25393L10.7818 5.20706ZM1.89035 4.26617V7.9827C1.89035 8.33346 1.606 8.6178 1.25524 8.6178C0.904484 8.6178 0.620138 8.33346 0.620138 7.9827V3.70081C0.627856 3.70478 0.635771 3.70858 0.643881 3.71218L1.89035 4.26617Z" fill="white"/>
<path d="M14.1453 2.93832L8.42635 0.396567C7.76949 0.104627 7.01969 0.104627 6.36283 0.396567L0.643891 2.93832C0.308634 3.08732 0.308634 3.56313 0.643891 3.71214L6.36283 6.25389C7.01969 6.54583 7.76949 6.54583 8.42635 6.25389L14.1453 3.71214C14.4805 3.56313 14.4805 3.08732 14.1453 2.93832Z" fill="white"/>
<path d="M5.44735 11.2849L6.79253 12.6451C7.12397 12.9803 7.66528 12.9803 7.99673 12.6451L9.3419 11.2849C9.5497 11.0748 9.85307 10.9852 10.1366 11.0686C12.512 11.7671 14.1691 13.3454 14.1691 15.1806C14.1691 16.1159 13.4108 16.8742 12.4755 16.8742H2.3138C1.37844 16.8742 0.620185 16.1159 0.620185 15.1806C0.620185 13.3454 2.27727 11.7671 4.65267 11.0686C4.93619 10.9852 5.23955 11.0748 5.44735 11.2849Z" fill="white"/>
</svg>
